<?xml version="1.0" standalone="no"?><!DOCTYPE svg PUBLIC "-//W3C//DTD SVG 1.1//EN" "http://www.w3.org/Graphics/SVG/1.1/DTD/svg11.dtd"><svg t="1528027729076" class="icon" style="" viewBox="0 0 1024 1024" version="1.1" xmlns="http://www.w3.org/2000/svg" p-id="41497" xmlns:xlink="http://www.w3.org/1999/xlink" width="128" height="128"><defs><style type="text/css"></style></defs><path d="M512 512m-512 0a512 512 0 1 0 1024 0 512 512 0 1 0-1024 0Z" fill="#9DE8F7" p-id="41498"></path><path d="M790.4 64L704 150.4l174.4 172.8 86.4-86.4z" fill="#F2385A" p-id="41499"></path><path d="M412.8 436.8L128 718.4l174.4 172.8 552-545.6L680 172.8z" fill="#FAD97F" p-id="41500"></path><path d="M83.2 860.8l75.2 73.6 110.4-28.8L112 750.4z" fill="#FFFFFF" p-id="41501"></path><path d="M790.4 19.2l-696 688-3.2 3.2L12.8 1004.8l292.8-75.2 4.8-1.6 699.2-691.2L790.4 19.2z m-632 915.2l-75.2-73.6L112 750.4l156.8 155.2-110.4 28.8z m144-43.2L128 718.4l284.8-281.6L680 172.8l174.4 172.8-552 545.6zM704 150.4L790.4 64l174.4 172.8-86.4 86.4L704 150.4z" fill="" p-id="41502"></path></svg>